<svg id="Layer_1" data-name="Layer 1" xmlns="http://www.w3.org/2000/svg" viewBox="0 0 155.43 52"><defs><style>.cls-1{fill:#2e67e7;}.cls-2{fill:#04ffb8;}.cls-3{fill:#fff;}</style></defs><title>logoArtboard 1</title><polygon class="cls-1" points="0 22.6 7.93 19.12 15.24 33.16 26.83 10.79 39.56 5.19 15.24 52 0 22.6"/><polygon class="cls-2" points="0 17.41 7.93 13.93 15.24 27.97 26.83 5.59 39.56 0 15.24 46.81 0 17.41"/><path class="cls-3" d="M38.72,47.27a8.33,8.33,0,0,1-4.79-1.37,9,9,0,0,1-3.1-3.67,11.76,11.76,0,0,1-1.08-5.07A10.76,10.76,0,0,1,31,32a9.22,9.22,0,0,1,3.53-3.64A10.64,10.64,0,0,1,40,27a10.15,10.15,0,0,1,5.37,1.35A9,9,0,0,1,48.8,32,10.91,10.91,0,0,1,50,37.08v9.73H45.63V43.2h-.07a8.75,8.75,0,0,1-1.49,2,6.78,6.78,0,0,1-2.24,1.5A7.81,7.81,0,0,1,38.72,47.27Zm1.17-3.73a5.25,5.25,0,0,0,3-.85,5.67,5.67,0,0,0,2-2.32,7.46,7.46,0,0,0,.71-3.29,7.34,7.34,0,0,0-.69-3.24,5.6,5.6,0,0,0-1.94-2.28,5.17,5.17,0,0,0-3-.86,5.38,5.38,0,0,0-5.09,3.16,8.13,8.13,0,0,0,0,6.51,5.57,5.57,0,0,0,2,2.32A5.42,5.42,0,0,0,39.89,43.54Z"/><path class="cls-3" d="M55.24,46.81V19.08h4.37V46.81Z"/><path class="cls-3" d="M67,24.74a2.85,2.85,0,0,1-2.81-2.81A2.74,2.74,0,0,1,65,20a2.71,2.71,0,0,1,2-.84A2.67,2.67,0,0,1,69,20a2.79,2.79,0,0,1,0,3.95A2.67,2.67,0,0,1,67,24.74ZM64.85,46.81V27.43h4.37V46.81Z"/><path class="cls-3" d="M83.47,47.27a11.46,11.46,0,0,1-4.2-.74,8.65,8.65,0,0,1-3.19-2.15,9.83,9.83,0,0,1-2-3.33,12.15,12.15,0,0,1-.71-4.23,10.64,10.64,0,0,1,1.2-5.17,8.75,8.75,0,0,1,3.33-3.44A9.49,9.49,0,0,1,82.75,27a7.84,7.84,0,0,1,2.58.42,7.93,7.93,0,0,1,2.21,1.17,6.43,6.43,0,0,1,1.59,1.79h0V19.08h4.37V36.89a11.49,11.49,0,0,1-1.27,5.53A8.81,8.81,0,0,1,88.73,46,10.63,10.63,0,0,1,83.47,47.27Zm0-3.73a5.34,5.34,0,0,0,2.94-.81,5.63,5.63,0,0,0,2-2.26,8.13,8.13,0,0,0,0-6.69,5.57,5.57,0,0,0-2-2.26,5.33,5.33,0,0,0-3-.82,5.23,5.23,0,0,0-2.92.84,5.6,5.6,0,0,0-2,2.28,7.28,7.28,0,0,0-.72,3.3,7.44,7.44,0,0,0,.72,3.35,5.44,5.44,0,0,0,5,3.07Z"/><path class="cls-3" d="M106.49,47.27a8.3,8.3,0,0,1-4.78-1.37,8.89,8.89,0,0,1-3.1-3.67,11.76,11.76,0,0,1-1.08-5.07A10.87,10.87,0,0,1,98.76,32a9.22,9.22,0,0,1,3.53-3.64A10.69,10.69,0,0,1,107.78,27a10.16,10.16,0,0,1,5.38,1.35A9.14,9.14,0,0,1,116.58,32a10.91,10.91,0,0,1,1.2,5.11v9.73h-4.37V43.2h-.08a8.7,8.7,0,0,1-1.48,2,7,7,0,0,1-2.24,1.5A7.9,7.9,0,0,1,106.49,47.27Zm1.18-3.73a5.21,5.21,0,0,0,3-.85,5.69,5.69,0,0,0,2-2.32,8.07,8.07,0,0,0,0-6.53,5.68,5.68,0,0,0-1.94-2.28,5.22,5.22,0,0,0-3-.86,5.52,5.52,0,0,0-3.12.86,5.45,5.45,0,0,0-2,2.3,8,8,0,0,0,0,6.51,5.55,5.55,0,0,0,1.95,2.32A5.43,5.43,0,0,0,107.67,43.54Z"/><path class="cls-3" d="M120.85,31.16V27.43h13.72v3.73Zm8.86,15.65a5.41,5.41,0,0,1-4.05-1.48,5.47,5.47,0,0,1-1.46-4V22.57h4.33V41.11a2,2,0,0,0,.53,1.43,1.88,1.88,0,0,0,1.41.55h4.06v3.72Z"/><path class="cls-3" d="M147.79,46.81a12.61,12.61,0,0,1-5.72-1.23,9.47,9.47,0,0,1-3.82-3.42,9.33,9.33,0,0,1-1.36-5,11.06,11.06,0,0,1,1.21-5.28,9.13,9.13,0,0,1,3.34-3.57A9.3,9.3,0,0,1,146.35,27a9.08,9.08,0,0,1,5.12,1.33,8,8,0,0,1,3,3.57,12.61,12.61,0,0,1,1,5c0,.26,0,.55,0,.88a4.49,4.49,0,0,1-.12.76H141.52a4.85,4.85,0,0,0,1.1,2.52,5.35,5.35,0,0,0,2.21,1.52,8,8,0,0,0,3,.52H153v3.72Zm-6.31-11.25h9.58a8.93,8.93,0,0,0-.21-1.44,5.56,5.56,0,0,0-.53-1.37,4.17,4.17,0,0,0-2.23-1.88,4.92,4.92,0,0,0-1.74-.28,4.48,4.48,0,0,0-2,.43,4.82,4.82,0,0,0-2.41,2.74A8.44,8.44,0,0,0,141.48,35.56Z"/></svg>